<svg width="25" height="22" viewBox="0 0 25 22" fill="none" xmlns="http://www.w3.org/2000/svg">
<path fill-rule="evenodd" clip-rule="evenodd" d="M1.1985 21.9531C0.697046 21.7903 0.337465 21.5029 0.119272 21.0905C0.0273597 20.9168 0.00834174 20.8078 0.00834174 20.4539C0.00834174 19.6898 -0.473414 20.1669 5.88528 14.6337C10.3302 10.7658 11.4947 9.77445 11.6788 9.70171C12.2314 9.4834 12.7576 9.48281 13.2886 9.69988C13.5756 9.81719 14.0288 10.2014 19.1544 14.6721C25.4767 20.1867 24.9908 19.7052 24.9908 20.4547C24.9908 20.8359 24.9762 20.9067 24.853 21.1254C24.6772 21.4375 24.332 21.7385 23.9887 21.8788C23.7524 21.9755 23.6572 21.9887 23.2063 21.9881C22.7677 21.9874 22.6574 21.9726 22.4485 21.8858C22.2521 21.8042 21.2525 20.9563 17.3517 17.5617L12.4993 13.3391L7.67165 17.5428C3.7056 20.9963 2.79591 21.7677 2.57503 21.8651C2.34819 21.9651 2.23349 21.9858 1.84169 21.9974C1.53369 22.0065 1.31706 21.9916 1.1985 21.9531ZM1.30508 12.6121C0.767349 12.4808 0.376967 12.1911 0.137165 11.7454C0.0249152 11.5367 0.00834174 11.4512 0.00834174 11.0798C0.00834174 10.336 -0.470285 10.8097 5.84734 5.30046C12.1836 -0.225097 11.6102 0.213354 12.4996 0.213354C12.9664 0.213354 13.0377 0.224305 13.2865 0.334163C13.5145 0.434901 14.4917 1.26821 19.158 5.34124C25.4889 10.8673 24.9908 10.3754 24.9908 11.1011C24.9908 11.4481 24.9727 11.5397 24.8636 11.7423C24.4422 12.5254 23.4153 12.8718 22.4977 12.5401C22.287 12.464 21.576 11.8626 17.3763 8.20802L12.4996 3.96432L7.62286 8.20973C2.91975 12.304 2.73583 12.4584 2.45604 12.5475C2.07035 12.6703 1.64193 12.6943 1.30508 12.6121Z" fill="#017DF8"/>
</svg>
