<svg width="32" height="32" viewBox="0 0 32 32" fill="none" xmlns="http://www.w3.org/2000/svg">
<path fill-rule="evenodd" clip-rule="evenodd" d="M18.1574 0.0681754C23.9176 0.787533 28.8112 4.51339 30.9297 9.79271C31.7669 11.8791 32.1474 14.3538 31.9479 16.4142C31.6074 19.931 30.1816 22.9933 27.6938 25.5513C27.3555 25.899 27.0587 26.2617 27.0341 26.3571C27.0095 26.4525 27.1593 27.4089 27.3669 28.4825C27.7889 30.6645 27.7895 30.8796 27.3756 31.4364C27.0762 31.8392 26.7011 32 26.0612 32H25.5368L23.349 30.8502C22.1458 30.2178 21.0759 29.7005 20.9714 29.7005C20.8668 29.7005 20.4691 29.7791 20.0875 29.8754C18.5403 30.2653 18.0296 30.319 15.8724 30.3184C13.7144 30.3178 13.3046 30.2742 11.7413 29.8784C4.90292 28.1471 0.0039733 22.0115 2.65425e-06 15.1731C-0.00449241 7.54112 5.98878 1.02019 13.8851 0.0655471C14.6187 -0.0231498 17.4402 -0.0213975 18.1574 0.0681754ZM21.5849 13.8465C20.6935 14.2391 20.2441 15.1807 20.5148 16.0882C20.6742 16.6222 21.2465 17.2097 21.7483 17.3543C23.033 17.7245 24.3006 16.865 24.3006 15.6236C24.3006 15.0018 24.1637 14.67 23.7327 14.2475C23.1187 13.6456 22.3618 13.5043 21.5849 13.8465ZM15.0795 13.906C14.6093 14.1554 14.3019 14.5065 14.1413 14.9777C13.8364 15.872 14.3042 16.9047 15.1921 17.2977C15.5992 17.4778 16.3683 17.4788 16.773 17.2996C17.9006 16.8005 18.2781 15.3793 17.5352 14.4302C16.9372 13.6662 15.935 13.4523 15.0795 13.906ZM9.04647 13.7479C7.91859 14.0743 7.33797 15.3735 7.86202 16.3981C8.4798 17.6061 10.1257 17.8107 11.0445 16.7936C11.723 16.0424 11.6907 14.9422 10.9695 14.2395C10.4216 13.7055 9.76921 13.5389 9.04647 13.7479Z" fill="#017DF8"/>
</svg>
