<svg width="25" height="35" viewBox="0 0 25 35" fill="none" xmlns="http://www.w3.org/2000/svg">
<path fill-rule="evenodd" clip-rule="evenodd" d="M12.1137 0.126117C12.0371 0.194386 11.6883 0.601585 11.3386 1.03092C9.09186 3.78892 7.65524 6.11843 6.42754 8.99437C4.89355 12.5879 4.00634 16.7601 4.00549 20.384C4.00528 21.3411 4.02629 21.5552 4.15331 21.8948C4.35088 22.4229 4.86098 22.933 5.38903 23.1305C5.78005 23.2768 5.86521 23.2786 12.5466 23.2786C20.331 23.2786 19.7201 23.3303 20.4377 22.61C21.081 21.9641 21.1411 21.7175 21.0857 19.9482C20.9017 14.0724 18.8717 8.0765 15.4433 3.28273C14.8542 2.4591 13.3067 0.507981 12.9678 0.161742C12.7728 -0.037529 12.3185 -0.0564768 12.1137 0.126117ZM13.4415 7.57237C14.0019 7.72664 14.341 7.91818 14.767 8.32112C15.5083 9.02212 15.8565 9.8087 15.8565 10.7821C15.8565 12.6548 14.3901 14.124 12.5211 14.124C11.5407 14.124 10.7564 13.7778 10.0536 13.0346C9.45932 12.4063 9.18575 11.6982 9.18575 10.7887C9.18575 9.85497 9.46031 9.16603 10.0994 8.49584C11.0112 7.53979 12.165 7.22095 13.4415 7.57237ZM2.38649 14.1301C1.26502 15.0228 0.586454 15.6105 0.564738 15.7077C0.54572 15.7929 0.399815 17.4409 0.240427 19.3699C-0.046557 22.8439 -0.0479764 22.8789 0.0868578 23.0601C0.291806 23.3355 0.713908 23.3295 2.01193 23.0327C2.61351 22.8951 3.11686 22.7713 3.13063 22.7576C3.14433 22.7438 3.10721 22.6169 3.04817 22.4757C2.96812 22.284 2.9408 21.9411 2.9408 21.1278C2.9408 18.8666 3.32252 16.1381 3.97831 13.7119C4.11868 13.1924 4.22009 12.754 4.20363 12.7375C4.18716 12.721 3.3695 13.3477 2.38649 14.1301ZM20.8241 12.7568C20.8241 12.792 20.9646 13.3775 21.1364 14.0579C21.735 16.4289 22.0175 18.3931 22.0808 20.6255C22.1151 21.8355 22.1036 22.105 22.0051 22.394C21.9412 22.5815 21.8968 22.7401 21.9065 22.7465C21.9777 22.7934 24.3784 23.2812 24.532 23.28C24.6393 23.2793 24.791 23.2147 24.8691 23.1366C25.0646 22.9411 25.0571 22.7 24.7372 18.9013C24.5439 16.606 24.4385 15.6553 24.3665 15.555C24.3112 15.478 23.6272 14.9087 22.8466 14.2898C20.8231 12.6856 20.8241 12.6863 20.8241 12.7568ZM5.59171 24.2353C5.61392 24.2932 5.78246 24.8096 5.96634 25.383C6.15021 25.9564 6.35899 26.4838 6.43031 26.5552C6.55379 26.6786 6.8319 26.6849 12.196 26.6849C15.2957 26.6849 17.8843 26.6648 17.9484 26.6402C18.0409 26.6047 19.2628 24.3051 19.2628 24.1664C19.2628 24.1465 16.1777 24.1301 12.4071 24.1301C6.37843 24.1301 5.55623 24.1428 5.59171 24.2353ZM7.41162 28.9558V30.6589H7.97934H8.54706V28.9558V27.2526H7.97934H7.41162V28.9558ZM11.9534 30.6589V34.0653H12.5211H13.0888V30.6589V27.2526H12.5211H11.9534V30.6589ZM15.9275 28.9558V30.6589H16.4952H17.0629V28.9558V27.2526H16.4952H15.9275V28.9558Z" fill="#017DF8"/>
</svg>
